<?xml version="1.0" standalone="no"?>
<!DOCTYPE svg PUBLIC "-//W3C//DTD SVG 20010904//EN"
 "http://www.w3.org/TR/2001/REC-SVG-20010904/DTD/svg10.dtd">
<svg version="1.0" xmlns="http://www.w3.org/2000/svg"
 width="272.000000pt" height="272.000000pt" viewBox="0 0 272.000000 272.000000"
 preserveAspectRatio="xMidYMid meet">

<g transform="translate(0.000000,272.000000) scale(0.100000,-0.100000)"
fill="#000000" stroke="none">
<path d="M1779 2182 c-56 -19 -123 -60 -169 -104 -24 -23 -27 -24 -180 -20
-114 3 -180 0 -250 -12 -93 -16 -95 -16 -120 4 -58 47 -118 82 -169 97 -101
29 -215 3 -296 -68 -49 -44 -103 -156 -110 -235 -9 -91 -13 -100 -42 -113 -67
-30 -259 -168 -322 -231 -76 -75 -111 -137 -111 -194 0 -50 20 -86 76 -135 77
-67 218 -113 469 -151 118 -17 119 -18 85 -31 -85 -31 -188 -91 -230 -133 -60
-63 -61 -102 -3 -157 23 -21 53 -41 68 -45 29 -7 41 0 220 138 49 38 92 68 97
68 22 0 -1 -24 -103 -108 -128 -105 -168 -153 -169 -199 0 -47 46 -89 115
-103 159 -33 374 115 503 345 52 93 59 123 38 163 -15 29 -15 31 4 37 10 3 30
0 42 -7 15 -9 62 -13 143 -13 104 0 127 3 172 24 54 24 91 25 84 0 -22 -73 25
-178 144 -325 54 -68 88 -99 141 -131 123 -74 233 -89 312 -41 40 25 52 46 52
95 0 35 -8 45 -105 139 -58 55 -105 106 -105 113 0 19 26 1 133 -94 97 -86 98
-87 129 -74 17 7 46 28 65 46 85 85 5 176 -243 277 l-54 22 122 31 c313 78
468 175 485 300 15 115 -133 266 -410 417 l-84 46 -7 52 c-11 82 -61 191 -106
232 -93 83 -207 112 -311 78z m167 -118 c106 -51 107 -202 2 -253 -24 -11 -53
-21 -63 -21 -10 0 -39 10 -63 21 -104 51 -104 201 0 252 42 21 81 21 124 1z
m-1096 -36 c138 -71 82 -278 -72 -265 -62 5 -95 29 -119 83 -42 94 25 197 131
203 9 1 36 -9 60 -21z m718 -283 c-4 -20 -64 -59 -72 -47 -3 5 4 21 15 36 23
29 63 36 57 11z m-361 -17 c24 -22 29 -43 15 -52 -10 -6 -72 51 -72 65 0 17
34 9 57 -13z m1093 -372 c0 -18 -630 -290 -643 -277 -5 5 8 18 32 32 50 28
581 257 599 258 6 1 12 -5 12 -13z m-1385 -164 c77 -27 152 -55 168 -62 30
-15 39 -47 10 -35 -10 3 -153 54 -318 112 -165 58 -304 109 -309 113 -4 5 -5
13 -2 19 6 10 56 -6 451 -147z"/>
</g>
</svg>
